<?xml version="1.0" standalone="no"?>
<!DOCTYPE svg PUBLIC "-//W3C//DTD SVG 20010904//EN"
 "http://www.w3.org/TR/2001/REC-SVG-20010904/DTD/svg10.dtd">
<svg version="1.0" xmlns="http://www.w3.org/2000/svg"
 width="581.000000pt" height="581.000000pt" viewBox="0 0 581.000000 581.000000"
 preserveAspectRatio="xMidYMid meet">
<metadata>
Created by potrace 1.11, written by Peter Selinger 2001-2013
</metadata>
<g transform="translate(0.000000,581.000000) scale(0.100000,-0.100000)"
fill="#000000" stroke="none">
<path d="M2886 5785 c-22 -33 -45 -62 -70 -86 -11 -11 -16 -19 -12 -19 5 0 -3
-10 -18 -21 -15 -12 -25 -23 -23 -26 3 -2 -7 -17 -21 -32 -43 -45 -72 -81 -66
-81 3 0 -4 -9 -17 -20 -13 -10 -21 -19 -18 -20 4 0 -13 -21 -37 -47 -24 -26
-42 -48 -40 -50 2 -3 -11 -20 -30 -38 -19 -19 -34 -38 -34 -42 0 -5 -8 -16
-17 -24 -24 -22 -78 -92 -78 -102 0 -4 -5 -11 -11 -15 -6 -4 -34 -36 -62 -72
-29 -36 -55 -69 -60 -75 -4 -5 -10 -14 -13 -20 -2 -5 -14 -21 -26 -35 -38 -43
-118 -144 -143 -180 -34 -48 -167 -222 -185 -241 -8 -9 -15 -19 -15 -22 0 -6
-42 -65 -83 -117 -45 -56 -150 -207 -159 -226 -6 -13 -14 -24 -18 -24 -4 0
-27 -30 -51 -67 -23 -38 -47 -70 -51 -71 -4 -2 -6 -8 -2 -13 3 -5 0 -9 -6 -9
-6 0 -8 -4 -5 -10 3 -5 2 -10 -3 -10 -9 0 -142 -201 -142 -214 0 -4 -14 -28
-32 -53 -17 -26 -31 -52 -31 -60 0 -7 -4 -13 -8 -13 -7 0 -30 -41 -98 -175
-20 -38 -39 -71 -43 -73 -5 -2 -8 -10 -8 -18 0 -8 -7 -26 -16 -39 -9 -14 -13
-25 -9 -25 5 0 1 -8 -7 -17 -8 -10 -22 -34 -30 -53 -51 -113 -80 -184 -83
-200 -2 -10 -9 -29 -15 -41 -13 -24 -87 -247 -94 -282 -2 -12 -7 -29 -10 -37
-3 -8 -8 -26 -10 -40 -7 -37 -15 -69 -20 -88 -6 -20 -17 -84 -22 -127 -1 -16
-6 -57 -11 -90 -9 -72 -9 -400 0 -470 15 -108 25 -171 33 -197 3 -9 6 -25 8
-35 9 -42 37 -142 56 -198 28 -81 112 -269 122 -273 4 -2 8 -10 8 -17 0 -8 7
-21 16 -29 8 -9 13 -16 10 -16 -5 0 13 -31 97 -162 17 -27 34 -48 39 -48 4 0
8 -5 8 -10 0 -6 22 -40 50 -76 27 -36 50 -62 50 -57 0 4 8 -4 18 -19 25 -38
133 -149 205 -211 34 -28 70 -60 82 -70 32 -30 237 -163 280 -184 22 -10 42
-21 45 -24 3 -3 22 -12 43 -20 20 -7 37 -17 37 -21 0 -4 7 -8 15 -8 8 0 23 -4
33 -9 35 -19 153 -61 229 -82 69 -18 98 -26 178 -43 101 -21 286 -38 420 -38
81 0 250 10 281 16 12 2 45 7 75 11 148 18 427 103 532 161 15 8 27 12 27 8 0
-3 6 -2 13 4 7 6 39 25 71 41 32 17 78 45 103 61 24 17 46 30 48 30 7 0 121
84 174 128 42 35 229 219 261 258 29 34 65 81 85 108 11 15 28 37 38 48 9 12
17 25 17 29 0 4 6 14 13 21 20 20 127 202 127 216 0 7 4 12 9 12 8 0 24 37 22
53 -1 4 4 7 9 7 5 0 9 3 8 8 -1 4 11 33 25 66 15 32 27 64 27 70 0 7 4 16 9
21 19 20 76 231 96 355 4 25 9 53 10 62 24 125 24 415 1 578 -14 99 -19 131
-31 180 -1 3 -7 32 -15 65 -16 72 -13 60 -30 115 -7 25 -14 50 -16 55 -1 6 -9
29 -18 53 -8 23 -13 42 -10 42 2 0 -2 10 -10 23 -8 12 -15 24 -15 27 0 7 -10
36 -38 110 -63 167 -265 570 -296 591 -5 3 -8 10 -7 15 1 11 -92 168 -102 172
-5 2 -8 9 -8 16 0 7 -10 24 -22 38 -13 14 -24 30 -25 36 -1 5 -35 58 -75 116
-40 59 -77 114 -83 123 -5 9 -18 25 -27 35 -10 10 -18 21 -18 26 0 6 -10 19
-58 77 -5 6 -11 15 -13 21 -7 17 -103 146 -130 175 -15 16 -25 30 -23 32 2 2
-10 18 -26 35 -16 18 -29 34 -28 35 4 5 -107 147 -114 147 -5 0 -8 6 -8 14 0
8 -16 30 -35 50 -19 20 -32 36 -30 36 6 0 -93 130 -110 145 -6 6 -16 17 -21
26 -10 18 -55 76 -92 118 -13 14 -30 38 -38 54 -8 15 -17 27 -20 27 -3 0 -2
-5 2 -12 4 -7 3 -8 -4 -4 -7 4 -12 13 -12 21 0 7 -13 27 -30 45 -16 18 -30 36
-30 40 0 4 -20 29 -46 56 -25 27 -44 50 -42 51 2 1 -12 18 -29 38 -18 20 -33
39 -33 43 0 3 -12 18 -26 33 -14 15 -36 39 -50 54 -13 14 -24 29 -24 33 0 4
-17 27 -37 49 -21 23 -47 55 -58 70 -11 15 -32 40 -46 55 l-26 28 -17 -25z"/>
</g>
</svg>
